<?xml version="1.0" encoding="utf-8"?>
<!-- Generator: Adobe Illustrator 23.0.1, SVG Export Plug-In . SVG Version: 6.00 Build 0)  -->
<svg version="1.1" id="Layer_1" xmlns="http://www.w3.org/2000/svg" xmlns:xlink="http://www.w3.org/1999/xlink" x="0px" y="0px"
	 viewBox="0 0 23 23" style="enable-background:new 0 0 23 23;" xml:space="preserve">
<style type="text/css">
	.st0{fill:#868686;}
</style>
<g>
	<path class="st0" d="M0,11.19c0.06-0.5,0.11-1.01,0.18-1.51C0.35,8.63,0.7,7.67,1.43,6.87c0.1-0.12,0.22-0.23,0.34-0.32
		c0.32-0.23,0.55-0.17,0.74,0.17c0.08,0.15,0.16,0.3,0.22,0.47C2.99,7.99,3.56,8.4,4.39,8.51C5.03,8.6,5.65,8.59,6.26,8.35
		C6.32,8.32,6.37,8.3,6.42,8.27C6.47,8.24,6.51,8.2,6.57,8.16C6.47,8.08,6.39,8.01,6.31,7.94c-0.19-0.15-0.4-0.29-0.57-0.47
		C5.42,7.14,5.41,6.85,5.68,6.49C6,6.05,6.33,5.61,6.66,5.18c0.2-0.26,0.39-0.3,0.69-0.16c1.11,0.53,2.22,1.07,3.33,1.6
		c0.12,0.06,0.21,0.08,0.34-0.01c0.56-0.37,1.28-0.01,1.35,0.66c0.01,0.08,0.08,0.18,0.15,0.23c0.22,0.14,0.43,0.21,0.72,0.09
		c0.4-0.17,0.92,0.12,1.02,0.56c0.05,0.22,0.18,0.3,0.35,0.38c0.19,0.09,0.34,0.16,0.57,0.03c0.5-0.26,1.1,0.09,1.18,0.65
		c0.02,0.16,0.1,0.22,0.22,0.3c1.32,0.77,2.76,1.21,4.21,1.64c0.42,0.12,0.82,0.31,1.2,0.53c0.87,0.49,0.85,1.42,0.42,2.1
		c-0.41,0.66-1.05,1.05-1.74,1.36c-0.93,0.4-1.91,0.61-2.92,0.59c-3.31-0.08-6.61-0.17-9.92-0.25c-2-0.05-3.99-0.1-5.99-0.15
		c-0.22-0.01-0.45-0.02-0.67-0.04c-0.68-0.08-1.03-0.45-1.1-1.17C0.03,13.88,0.02,13.66,0,13.43C0,12.68,0,11.94,0,11.19z
		 M5.52,13.69c0.09,0.03,0.12,0.04,0.16,0.04c0.47-0.01,0.94-0.01,1.41-0.03c0.11-0.01,0.24-0.08,0.33-0.16
		c1.37-1.24,2.74-2.48,4.11-3.72c0.06-0.05,0.11-0.1,0.16-0.16c0.1-0.12,0.08-0.2-0.08-0.24c-0.2-0.05-0.39-0.1-0.58-0.16
		c-0.3-0.1-0.55-0.03-0.78,0.18c-1.51,1.34-3.02,2.68-4.53,4.03C5.65,13.52,5.61,13.59,5.52,13.69z M9.01,13.71
		c0.12,0.01,0.19,0.03,0.26,0.03c0.34,0,0.69,0,1.03,0c0.22,0,0.4-0.07,0.57-0.22c1.08-0.99,2.16-1.98,3.24-2.97
		c0.07-0.06,0.12-0.14,0.21-0.26c-0.33-0.09-0.62-0.16-0.9-0.25c-0.22-0.07-0.4-0.02-0.58,0.13c-1.21,1.1-2.43,2.19-3.64,3.29
		C9.14,13.53,9.1,13.6,9.01,13.71z"/>
	<path class="st0" d="M22.66,14.32c0.37,0.37,0.44,0.96,0.2,1.52c-0.25,0.57-0.7,0.97-1.22,1.28c-1.11,0.66-2.32,0.97-3.6,0.94
		c-3.43-0.07-6.85-0.17-10.28-0.26c-1.99-0.05-3.98-0.1-5.97-0.16c-0.31-0.01-0.62-0.07-0.92-0.15c-0.32-0.09-0.52-0.35-0.59-0.68
		c-0.05-0.26-0.09-0.53-0.09-0.8c0-0.26,0.15-0.36,0.4-0.32c0.04,0.01,0.08,0.01,0.11,0.02c0.74,0.29,1.51,0.26,2.28,0.27
		c1.58,0.03,3.16,0.11,4.74,0.15c3.46,0.09,6.91,0.19,10.37,0.26c1.13,0.02,2.21-0.25,3.22-0.77
		C21.88,15.33,22.21,15.02,22.66,14.32z"/>
</g>
</svg>
