<?xml version="1.0" encoding="utf-8"?>
<!-- Generator: Adobe Illustrator 23.0.1, SVG Export Plug-In . SVG Version: 6.00 Build 0)  -->
<svg version="1.1" id="Layer_1" xmlns="http://www.w3.org/2000/svg" xmlns:xlink="http://www.w3.org/1999/xlink" x="0px" y="0px"
	 viewBox="0 0 23 23" style="enable-background:new 0 0 23 23;" xml:space="preserve">
<style type="text/css">
	.st0{fill:#868686;}
</style>
<path class="st0" d="M11.5,7.21l-2.16,6.28h4.32L11.5,7.21z M11.5,7.21l-2.16,6.28h4.32L11.5,7.21z M21.1,0H1.9
	C0.85,0,0,0.84,0,1.88v19.21c0,1.06,0.85,1.9,1.9,1.9h19.2c1.05,0,1.9-0.84,1.9-1.9V1.88C23,0.84,22.15,0,21.1,0z M15.33,18.37
	l-1.04-3.04H8.7l-1.04,3.04H5.57l5.1-13.83h1.65l5.1,13.83H15.33z M9.34,13.49h4.32L11.5,7.21L9.34,13.49z M11.5,7.21l-2.16,6.28
	h4.32L11.5,7.21z M11.5,7.21l-2.16,6.28h4.32L11.5,7.21z"/>
</svg>
