<?xml version="1.0" encoding="utf-8"?>
<!-- Generator: Adobe Illustrator 23.0.1, SVG Export Plug-In . SVG Version: 6.00 Build 0)  -->
<svg version="1.1" id="Layer_1" xmlns="http://www.w3.org/2000/svg" xmlns:xlink="http://www.w3.org/1999/xlink" x="0px" y="0px"
	 viewBox="0 0 23 23" style="enable-background:new 0 0 23 23;" xml:space="preserve">
<style type="text/css">
	.st0{fill:#868686;}
</style>
<g>
	<path class="st0" d="M23,6.56c0,1.59,0,3.17,0,4.76c-0.01,0.02-0.03,0.04-0.03,0.06c-0.26,1-0.91,1.51-1.94,1.51
		c-2.42,0-4.85,0-7.27,0c-0.09,0-0.17,0-0.25,0c-0.12-1.24-1.08-1.88-1.96-1.9c-1.05-0.02-1.81,0.67-2.04,1.88
		c-0.05,0-0.1,0.01-0.15,0.01c-2.5,0-5,0.01-7.5,0C0.79,12.89,0,12.08,0,11.01c0-1.38,0-2.75,0-4.13c0-0.18,0.03-0.38,0.08-0.55
		C0.32,5.53,1.06,5,1.95,5c1.38,0,2.75,0,4.13,0c0.16,0,0.22-0.04,0.26-0.21C6.7,3.21,8.1,2.08,9.71,2.07c1.2-0.01,2.4-0.02,3.59,0
		c1.25,0.02,2.23,0.58,2.9,1.63c0.24,0.39,0.38,0.84,0.58,1.29c0.02,0,0.11,0,0.19,0c1.36,0,2.72-0.01,4.09,0
		c0.81,0.01,1.42,0.36,1.78,1.1C22.91,6.25,22.95,6.41,23,6.56z M8.1,4.98c2.27,0,4.54,0,6.81,0c-0.17-0.66-0.85-1.19-1.58-1.2
		c-1.22-0.01-2.44-0.01-3.66,0C8.95,3.79,8.25,4.34,8.1,4.98z"/>
	<path class="st0" d="M22.54,13.94c0,0.13,0,0.2,0,0.28c0,1.58,0,3.16,0,4.74c0,1.21-0.77,1.98-1.98,1.98c-6.04,0-12.08,0-18.12,0
		c-1.22,0-1.98-0.77-1.98-1.99c0-1.57,0-3.14,0-4.72c0-0.08,0-0.16,0-0.28c0.89,0.45,1.8,0.3,2.7,0.31c2.07,0.01,4.13,0.01,6.2,0
		c0.17,0,0.25,0.05,0.33,0.21c0.35,0.77,0.96,1.2,1.81,1.2c0.86,0,1.48-0.43,1.83-1.22c0.07-0.16,0.15-0.2,0.31-0.2
		c2.26,0.01,4.52,0,6.78,0C21.13,14.26,21.84,14.3,22.54,13.94z"/>
	<path class="st0" d="M12.65,13.38c-0.02,0.19-0.02,0.39-0.07,0.58c-0.14,0.53-0.67,0.87-1.2,0.8c-0.56-0.07-0.98-0.52-1-1.07
		c-0.01-0.2-0.01-0.4,0-0.61C10.4,12.48,10.9,12,11.51,12c0.6,0,1.1,0.48,1.12,1.09c0,0.1,0,0.19,0,0.29
		C12.63,13.38,12.64,13.38,12.65,13.38z"/>
</g>
</svg>
