<?xml version="1.0" encoding="utf-8"?>
<!-- Generator: Adobe Illustrator 23.0.1, SVG Export Plug-In . SVG Version: 6.00 Build 0)  -->
<svg version="1.1" id="Layer_1" xmlns="http://www.w3.org/2000/svg" xmlns:xlink="http://www.w3.org/1999/xlink" x="0px" y="0px"
	 viewBox="0 0 23.99 23.99" style="enable-background:new 0 0 23.99 23.99;" xml:space="preserve">
<style type="text/css">
	.st0{fill-rule:evenodd;clip-rule:evenodd;fill:#B1B1B2;}
	.st1{clip-path:url(#SVGID_2_);fill-rule:evenodd;clip-rule:evenodd;fill:#CCCCCC;}
	.st2{fill-rule:evenodd;clip-rule:evenodd;fill:url(#SVGID_3_);}
	.st3{clip-path:url(#SVGID_6_);fill-rule:evenodd;clip-rule:evenodd;fill:url(#SVGID_7_);}
	.st4{clip-path:url(#SVGID_6_);fill-rule:evenodd;clip-rule:evenodd;fill:url(#SVGID_8_);}
	.st5{clip-path:url(#SVGID_6_);fill-rule:evenodd;clip-rule:evenodd;fill:url(#SVGID_9_);}
	.st6{clip-path:url(#SVGID_6_);fill-rule:evenodd;clip-rule:evenodd;fill:url(#SVGID_10_);}
	.st7{clip-path:url(#SVGID_6_);fill-rule:evenodd;clip-rule:evenodd;fill:url(#SVGID_11_);}
	.st8{clip-path:url(#SVGID_6_);fill-rule:evenodd;clip-rule:evenodd;fill:url(#SVGID_12_);}
	.st9{clip-path:url(#SVGID_6_);fill-rule:evenodd;clip-rule:evenodd;fill:url(#SVGID_13_);}
	.st10{clip-path:url(#SVGID_6_);fill-rule:evenodd;clip-rule:evenodd;fill:url(#SVGID_14_);}
	.st11{clip-path:url(#SVGID_6_);fill-rule:evenodd;clip-rule:evenodd;fill:url(#SVGID_15_);}
	.st12{clip-path:url(#SVGID_6_);fill-rule:evenodd;clip-rule:evenodd;fill:url(#SVGID_16_);}
	.st13{clip-path:url(#SVGID_6_);fill-rule:evenodd;clip-rule:evenodd;fill:url(#SVGID_17_);}
	.st14{clip-path:url(#SVGID_6_);fill-rule:evenodd;clip-rule:evenodd;fill:url(#SVGID_18_);}
	.st15{clip-path:url(#SVGID_6_);fill-rule:evenodd;clip-rule:evenodd;fill:url(#SVGID_19_);}
	.st16{clip-path:url(#SVGID_6_);fill-rule:evenodd;clip-rule:evenodd;fill:url(#SVGID_20_);}
	.st17{clip-path:url(#SVGID_6_);fill-rule:evenodd;clip-rule:evenodd;fill:url(#SVGID_21_);}
	.st18{clip-path:url(#SVGID_6_);fill-rule:evenodd;clip-rule:evenodd;fill:url(#SVGID_22_);}
	.st19{clip-path:url(#SVGID_6_);fill-rule:evenodd;clip-rule:evenodd;fill:url(#SVGID_23_);}
	.st20{clip-path:url(#SVGID_6_);fill-rule:evenodd;clip-rule:evenodd;fill:url(#SVGID_24_);}
	.st21{clip-path:url(#SVGID_6_);fill-rule:evenodd;clip-rule:evenodd;fill:url(#SVGID_25_);}
	.st22{clip-path:url(#SVGID_6_);fill-rule:evenodd;clip-rule:evenodd;fill:url(#SVGID_26_);}
	.st23{clip-path:url(#SVGID_6_);fill-rule:evenodd;clip-rule:evenodd;fill:url(#SVGID_27_);}
	.st24{clip-path:url(#SVGID_6_);fill-rule:evenodd;clip-rule:evenodd;fill:url(#SVGID_28_);}
	.st25{clip-path:url(#SVGID_6_);fill-rule:evenodd;clip-rule:evenodd;fill:url(#SVGID_29_);}
	.st26{clip-path:url(#SVGID_6_);fill-rule:evenodd;clip-rule:evenodd;fill:url(#SVGID_30_);}
	.st27{clip-path:url(#SVGID_6_);fill-rule:evenodd;clip-rule:evenodd;fill:url(#SVGID_31_);}
	.st28{clip-path:url(#SVGID_6_);fill-rule:evenodd;clip-rule:evenodd;fill:url(#SVGID_32_);}
	.st29{clip-path:url(#SVGID_6_);fill-rule:evenodd;clip-rule:evenodd;fill:url(#SVGID_33_);}
	.st30{clip-path:url(#SVGID_6_);fill-rule:evenodd;clip-rule:evenodd;fill:url(#SVGID_34_);}
	.st31{clip-path:url(#SVGID_6_);fill-rule:evenodd;clip-rule:evenodd;fill:url(#SVGID_35_);}
	.st32{clip-path:url(#SVGID_6_);fill-rule:evenodd;clip-rule:evenodd;fill:url(#SVGID_36_);}
	.st33{clip-path:url(#SVGID_6_);fill-rule:evenodd;clip-rule:evenodd;fill:url(#SVGID_37_);}
	.st34{clip-path:url(#SVGID_6_);fill-rule:evenodd;clip-rule:evenodd;fill:url(#SVGID_38_);}
	.st35{clip-path:url(#SVGID_6_);fill-rule:evenodd;clip-rule:evenodd;fill:url(#SVGID_39_);}
	.st36{clip-path:url(#SVGID_6_);fill-rule:evenodd;clip-rule:evenodd;fill:url(#SVGID_40_);}
	.st37{clip-path:url(#SVGID_6_);fill-rule:evenodd;clip-rule:evenodd;fill:url(#SVGID_41_);}
	.st38{clip-path:url(#SVGID_6_);fill-rule:evenodd;clip-rule:evenodd;fill:url(#SVGID_42_);}
	.st39{clip-path:url(#SVGID_6_);fill-rule:evenodd;clip-rule:evenodd;fill:url(#SVGID_43_);}
	.st40{clip-path:url(#SVGID_6_);fill-rule:evenodd;clip-rule:evenodd;fill:url(#SVGID_44_);}
	.st41{clip-path:url(#SVGID_6_);fill-rule:evenodd;clip-rule:evenodd;fill:url(#SVGID_45_);}
	.st42{clip-path:url(#SVGID_6_);fill-rule:evenodd;clip-rule:evenodd;fill:url(#SVGID_46_);}
	.st43{clip-path:url(#SVGID_6_);fill-rule:evenodd;clip-rule:evenodd;fill:url(#SVGID_47_);}
	.st44{clip-path:url(#SVGID_6_);fill-rule:evenodd;clip-rule:evenodd;fill:url(#SVGID_48_);}
	.st45{clip-path:url(#SVGID_6_);fill-rule:evenodd;clip-rule:evenodd;fill:url(#SVGID_49_);}
	.st46{clip-path:url(#SVGID_6_);fill-rule:evenodd;clip-rule:evenodd;fill:url(#SVGID_50_);}
	.st47{clip-path:url(#SVGID_6_);fill-rule:evenodd;clip-rule:evenodd;fill:url(#SVGID_51_);}
	.st48{clip-path:url(#SVGID_6_);fill-rule:evenodd;clip-rule:evenodd;fill:url(#SVGID_52_);}
	.st49{clip-path:url(#SVGID_6_);fill-rule:evenodd;clip-rule:evenodd;fill:url(#SVGID_53_);}
	.st50{clip-path:url(#SVGID_6_);fill-rule:evenodd;clip-rule:evenodd;fill:url(#SVGID_54_);}
	.st51{clip-path:url(#SVGID_6_);fill-rule:evenodd;clip-rule:evenodd;fill:url(#SVGID_55_);}
	.st52{clip-path:url(#SVGID_6_);fill-rule:evenodd;clip-rule:evenodd;fill:url(#SVGID_56_);}
	.st53{clip-path:url(#SVGID_6_);fill-rule:evenodd;clip-rule:evenodd;fill:url(#SVGID_57_);}
	.st54{clip-path:url(#SVGID_6_);fill-rule:evenodd;clip-rule:evenodd;fill:url(#SVGID_58_);}
	.st55{clip-path:url(#SVGID_6_);fill-rule:evenodd;clip-rule:evenodd;fill:url(#SVGID_59_);}
	.st56{clip-path:url(#SVGID_6_);fill-rule:evenodd;clip-rule:evenodd;fill:url(#SVGID_60_);}
	.st57{clip-path:url(#SVGID_6_);fill-rule:evenodd;clip-rule:evenodd;fill:url(#SVGID_61_);}
	.st58{clip-path:url(#SVGID_6_);fill-rule:evenodd;clip-rule:evenodd;fill:url(#SVGID_62_);}
	.st59{clip-path:url(#SVGID_6_);fill-rule:evenodd;clip-rule:evenodd;fill:url(#SVGID_63_);}
	.st60{clip-path:url(#SVGID_6_);fill-rule:evenodd;clip-rule:evenodd;fill:url(#SVGID_64_);}
	.st61{clip-path:url(#SVGID_6_);fill-rule:evenodd;clip-rule:evenodd;fill:url(#SVGID_65_);}
	.st62{clip-path:url(#SVGID_6_);fill-rule:evenodd;clip-rule:evenodd;fill:url(#SVGID_66_);}
	.st63{clip-path:url(#SVGID_6_);fill-rule:evenodd;clip-rule:evenodd;fill:url(#SVGID_67_);}
	.st64{clip-path:url(#SVGID_6_);fill-rule:evenodd;clip-rule:evenodd;fill:url(#SVGID_68_);}
	.st65{clip-path:url(#SVGID_6_);fill-rule:evenodd;clip-rule:evenodd;fill:url(#SVGID_69_);}
	.st66{clip-path:url(#SVGID_6_);fill-rule:evenodd;clip-rule:evenodd;fill:url(#SVGID_70_);}
	.st67{clip-path:url(#SVGID_6_);fill-rule:evenodd;clip-rule:evenodd;fill:url(#SVGID_71_);}
	.st68{clip-path:url(#SVGID_6_);fill-rule:evenodd;clip-rule:evenodd;fill:url(#SVGID_72_);}
	.st69{clip-path:url(#SVGID_6_);fill-rule:evenodd;clip-rule:evenodd;fill:url(#SVGID_73_);}
	.st70{clip-path:url(#SVGID_6_);fill-rule:evenodd;clip-rule:evenodd;fill:url(#SVGID_74_);}
	.st71{clip-path:url(#SVGID_6_);fill-rule:evenodd;clip-rule:evenodd;fill:url(#SVGID_75_);}
	.st72{clip-path:url(#SVGID_6_);fill-rule:evenodd;clip-rule:evenodd;fill:url(#SVGID_76_);}
	.st73{clip-path:url(#SVGID_6_);fill-rule:evenodd;clip-rule:evenodd;fill:url(#SVGID_77_);}
	.st74{clip-path:url(#SVGID_6_);fill-rule:evenodd;clip-rule:evenodd;fill:url(#SVGID_78_);}
	.st75{clip-path:url(#SVGID_6_);fill-rule:evenodd;clip-rule:evenodd;fill:url(#SVGID_79_);}
	.st76{clip-path:url(#SVGID_6_);fill-rule:evenodd;clip-rule:evenodd;fill:url(#SVGID_80_);}
	.st77{clip-path:url(#SVGID_6_);fill-rule:evenodd;clip-rule:evenodd;fill:url(#SVGID_81_);}
	.st78{clip-path:url(#SVGID_6_);fill-rule:evenodd;clip-rule:evenodd;fill:url(#SVGID_82_);}
	.st79{clip-path:url(#SVGID_6_);fill-rule:evenodd;clip-rule:evenodd;fill:url(#SVGID_83_);}
	.st80{clip-path:url(#SVGID_6_);fill-rule:evenodd;clip-rule:evenodd;fill:url(#SVGID_84_);}
	.st81{clip-path:url(#SVGID_6_);fill-rule:evenodd;clip-rule:evenodd;fill:url(#SVGID_85_);}
	.st82{clip-path:url(#SVGID_6_);fill-rule:evenodd;clip-rule:evenodd;fill:url(#SVGID_86_);}
	.st83{clip-path:url(#SVGID_6_);fill-rule:evenodd;clip-rule:evenodd;fill:url(#SVGID_87_);}
	.st84{clip-path:url(#SVGID_6_);fill-rule:evenodd;clip-rule:evenodd;fill:url(#SVGID_88_);}
	.st85{clip-path:url(#SVGID_6_);fill-rule:evenodd;clip-rule:evenodd;fill:url(#SVGID_89_);}
	.st86{clip-path:url(#SVGID_6_);fill-rule:evenodd;clip-rule:evenodd;fill:url(#SVGID_90_);}
	.st87{clip-path:url(#SVGID_6_);fill-rule:evenodd;clip-rule:evenodd;fill:url(#SVGID_91_);}
	.st88{clip-path:url(#SVGID_6_);fill-rule:evenodd;clip-rule:evenodd;fill:url(#SVGID_92_);}
	.st89{clip-path:url(#SVGID_6_);fill-rule:evenodd;clip-rule:evenodd;fill:url(#SVGID_93_);}
	.st90{clip-path:url(#SVGID_6_);fill-rule:evenodd;clip-rule:evenodd;fill:url(#SVGID_94_);}
	.st91{clip-path:url(#SVGID_6_);fill-rule:evenodd;clip-rule:evenodd;fill:url(#SVGID_95_);}
	.st92{clip-path:url(#SVGID_6_);fill-rule:evenodd;clip-rule:evenodd;fill:url(#SVGID_96_);}
	.st93{clip-path:url(#SVGID_6_);fill-rule:evenodd;clip-rule:evenodd;fill:url(#SVGID_97_);}
	.st94{clip-path:url(#SVGID_6_);fill-rule:evenodd;clip-rule:evenodd;fill:url(#SVGID_98_);}
	.st95{clip-path:url(#SVGID_6_);fill-rule:evenodd;clip-rule:evenodd;fill:url(#SVGID_99_);}
	.st96{clip-path:url(#SVGID_6_);fill-rule:evenodd;clip-rule:evenodd;fill:url(#SVGID_100_);}
	.st97{clip-path:url(#SVGID_6_);fill-rule:evenodd;clip-rule:evenodd;fill:url(#SVGID_101_);}
	.st98{clip-path:url(#SVGID_6_);fill-rule:evenodd;clip-rule:evenodd;fill:url(#SVGID_102_);}
	.st99{clip-path:url(#SVGID_6_);fill-rule:evenodd;clip-rule:evenodd;fill:url(#SVGID_103_);}
	.st100{clip-path:url(#SVGID_6_);fill-rule:evenodd;clip-rule:evenodd;fill:url(#SVGID_104_);}
	.st101{clip-path:url(#SVGID_6_);fill-rule:evenodd;clip-rule:evenodd;fill:url(#SVGID_105_);}
	.st102{clip-path:url(#SVGID_6_);fill-rule:evenodd;clip-rule:evenodd;fill:url(#SVGID_106_);}
	.st103{clip-path:url(#SVGID_6_);fill-rule:evenodd;clip-rule:evenodd;fill:url(#SVGID_107_);}
	.st104{clip-path:url(#SVGID_6_);fill-rule:evenodd;clip-rule:evenodd;fill:url(#SVGID_108_);}
	.st105{clip-path:url(#SVGID_6_);fill-rule:evenodd;clip-rule:evenodd;fill:url(#SVGID_109_);}
	.st106{clip-path:url(#SVGID_6_);fill-rule:evenodd;clip-rule:evenodd;fill:url(#SVGID_110_);}
	.st107{clip-path:url(#SVGID_6_);fill-rule:evenodd;clip-rule:evenodd;fill:url(#SVGID_111_);}
	.st108{clip-path:url(#SVGID_6_);fill-rule:evenodd;clip-rule:evenodd;fill:url(#SVGID_112_);}
	.st109{clip-path:url(#SVGID_6_);fill-rule:evenodd;clip-rule:evenodd;fill:url(#SVGID_113_);}
	.st110{clip-path:url(#SVGID_6_);fill-rule:evenodd;clip-rule:evenodd;fill:url(#SVGID_114_);}
	.st111{clip-path:url(#SVGID_6_);fill-rule:evenodd;clip-rule:evenodd;fill:url(#SVGID_115_);}
	.st112{clip-path:url(#SVGID_6_);fill-rule:evenodd;clip-rule:evenodd;fill:url(#SVGID_116_);}
	.st113{clip-path:url(#SVGID_6_);fill-rule:evenodd;clip-rule:evenodd;fill:url(#SVGID_117_);}
	.st114{clip-path:url(#SVGID_6_);fill-rule:evenodd;clip-rule:evenodd;fill:url(#SVGID_118_);}
	.st115{clip-path:url(#SVGID_6_);fill-rule:evenodd;clip-rule:evenodd;fill:url(#SVGID_119_);}
	.st116{clip-path:url(#SVGID_6_);fill-rule:evenodd;clip-rule:evenodd;fill:url(#SVGID_120_);}
	.st117{clip-path:url(#SVGID_6_);fill-rule:evenodd;clip-rule:evenodd;fill:url(#SVGID_121_);}
	.st118{clip-path:url(#SVGID_6_);fill-rule:evenodd;clip-rule:evenodd;fill:url(#SVGID_122_);}
	.st119{clip-path:url(#SVGID_6_);fill-rule:evenodd;clip-rule:evenodd;fill:url(#SVGID_123_);}
	.st120{clip-path:url(#SVGID_6_);fill-rule:evenodd;clip-rule:evenodd;fill:url(#SVGID_124_);}
	.st121{clip-path:url(#SVGID_6_);fill-rule:evenodd;clip-rule:evenodd;fill:url(#SVGID_125_);}
	.st122{clip-path:url(#SVGID_6_);fill-rule:evenodd;clip-rule:evenodd;fill:url(#SVGID_126_);}
	.st123{clip-path:url(#SVGID_6_);fill-rule:evenodd;clip-rule:evenodd;fill:url(#SVGID_127_);}
	.st124{clip-path:url(#SVGID_6_);fill-rule:evenodd;clip-rule:evenodd;fill:url(#SVGID_128_);}
	.st125{clip-path:url(#SVGID_6_);fill-rule:evenodd;clip-rule:evenodd;fill:url(#SVGID_129_);}
	.st126{clip-path:url(#SVGID_6_);fill-rule:evenodd;clip-rule:evenodd;fill:url(#SVGID_130_);}
	.st127{clip-path:url(#SVGID_6_);fill-rule:evenodd;clip-rule:evenodd;fill:url(#SVGID_131_);}
	.st128{clip-path:url(#SVGID_6_);fill-rule:evenodd;clip-rule:evenodd;fill:url(#SVGID_132_);}
	.st129{clip-path:url(#SVGID_6_);fill-rule:evenodd;clip-rule:evenodd;fill:url(#SVGID_133_);}
	.st130{clip-path:url(#SVGID_6_);fill-rule:evenodd;clip-rule:evenodd;fill:url(#SVGID_134_);}
	.st131{clip-path:url(#SVGID_6_);fill-rule:evenodd;clip-rule:evenodd;fill:url(#SVGID_135_);}
	.st132{clip-path:url(#SVGID_6_);fill-rule:evenodd;clip-rule:evenodd;fill:url(#SVGID_136_);}
	.st133{clip-path:url(#SVGID_6_);fill-rule:evenodd;clip-rule:evenodd;fill:url(#SVGID_137_);}
	.st134{clip-path:url(#SVGID_6_);fill-rule:evenodd;clip-rule:evenodd;fill:url(#SVGID_138_);}
	.st135{clip-path:url(#SVGID_6_);fill-rule:evenodd;clip-rule:evenodd;fill:url(#SVGID_139_);}
	.st136{clip-path:url(#SVGID_6_);fill-rule:evenodd;clip-rule:evenodd;fill:url(#SVGID_140_);}
	.st137{clip-path:url(#SVGID_6_);fill-rule:evenodd;clip-rule:evenodd;fill:url(#SVGID_141_);}
	.st138{clip-path:url(#SVGID_6_);fill-rule:evenodd;clip-rule:evenodd;fill:url(#SVGID_142_);}
	.st139{clip-path:url(#SVGID_6_);fill-rule:evenodd;clip-rule:evenodd;fill:url(#SVGID_143_);}
	.st140{clip-path:url(#SVGID_6_);fill-rule:evenodd;clip-rule:evenodd;fill:url(#SVGID_144_);}
	.st141{clip-path:url(#SVGID_6_);fill-rule:evenodd;clip-rule:evenodd;fill:url(#SVGID_145_);}
	.st142{clip-path:url(#SVGID_6_);fill-rule:evenodd;clip-rule:evenodd;fill:url(#SVGID_146_);}
	.st143{clip-path:url(#SVGID_6_);fill-rule:evenodd;clip-rule:evenodd;fill:url(#SVGID_147_);}
	.st144{clip-path:url(#SVGID_6_);fill-rule:evenodd;clip-rule:evenodd;fill:url(#SVGID_148_);}
	.st145{clip-path:url(#SVGID_6_);fill-rule:evenodd;clip-rule:evenodd;fill:url(#SVGID_149_);}
	.st146{clip-path:url(#SVGID_6_);fill-rule:evenodd;clip-rule:evenodd;fill:url(#SVGID_150_);}
	.st147{clip-path:url(#SVGID_6_);fill-rule:evenodd;clip-rule:evenodd;fill:url(#SVGID_151_);}
	.st148{clip-path:url(#SVGID_6_);fill-rule:evenodd;clip-rule:evenodd;fill:url(#SVGID_152_);}
	.st149{clip-path:url(#SVGID_6_);fill-rule:evenodd;clip-rule:evenodd;fill:url(#SVGID_153_);}
	.st150{clip-path:url(#SVGID_6_);fill-rule:evenodd;clip-rule:evenodd;fill:url(#SVGID_154_);}
	.st151{clip-path:url(#SVGID_6_);fill-rule:evenodd;clip-rule:evenodd;fill:url(#SVGID_155_);}
	.st152{clip-path:url(#SVGID_6_);fill-rule:evenodd;clip-rule:evenodd;fill:url(#SVGID_156_);}
	.st153{clip-path:url(#SVGID_6_);fill-rule:evenodd;clip-rule:evenodd;fill:url(#SVGID_157_);}
	.st154{clip-path:url(#SVGID_6_);fill-rule:evenodd;clip-rule:evenodd;fill:url(#SVGID_158_);}
	.st155{clip-path:url(#SVGID_6_);fill-rule:evenodd;clip-rule:evenodd;fill:url(#SVGID_159_);}
	.st156{clip-path:url(#SVGID_6_);fill-rule:evenodd;clip-rule:evenodd;fill:url(#SVGID_160_);}
	.st157{clip-path:url(#SVGID_6_);fill-rule:evenodd;clip-rule:evenodd;fill:url(#SVGID_161_);}
	.st158{clip-path:url(#SVGID_6_);fill-rule:evenodd;clip-rule:evenodd;fill:url(#SVGID_162_);}
	.st159{clip-path:url(#SVGID_6_);fill-rule:evenodd;clip-rule:evenodd;fill:url(#SVGID_163_);}
	.st160{clip-path:url(#SVGID_6_);fill-rule:evenodd;clip-rule:evenodd;fill:url(#SVGID_164_);}
	.st161{clip-path:url(#SVGID_6_);fill-rule:evenodd;clip-rule:evenodd;fill:url(#SVGID_165_);}
	.st162{clip-path:url(#SVGID_6_);fill-rule:evenodd;clip-rule:evenodd;fill:url(#SVGID_166_);}
	.st163{clip-path:url(#SVGID_6_);fill-rule:evenodd;clip-rule:evenodd;fill:url(#SVGID_167_);}
	.st164{clip-path:url(#SVGID_6_);fill-rule:evenodd;clip-rule:evenodd;fill:url(#SVGID_168_);}
	.st165{clip-path:url(#SVGID_6_);fill-rule:evenodd;clip-rule:evenodd;fill:url(#SVGID_169_);}
	.st166{clip-path:url(#SVGID_6_);fill-rule:evenodd;clip-rule:evenodd;fill:url(#SVGID_170_);}
	.st167{clip-path:url(#SVGID_6_);fill-rule:evenodd;clip-rule:evenodd;fill:url(#SVGID_171_);}
	.st168{clip-path:url(#SVGID_6_);fill-rule:evenodd;clip-rule:evenodd;fill:url(#SVGID_172_);}
	.st169{clip-path:url(#SVGID_6_);fill-rule:evenodd;clip-rule:evenodd;fill:url(#SVGID_173_);}
	.st170{clip-path:url(#SVGID_6_);fill-rule:evenodd;clip-rule:evenodd;fill:url(#SVGID_174_);}
	.st171{clip-path:url(#SVGID_6_);fill-rule:evenodd;clip-rule:evenodd;fill:url(#SVGID_175_);}
	.st172{clip-path:url(#SVGID_6_);fill-rule:evenodd;clip-rule:evenodd;fill:url(#SVGID_176_);}
	.st173{clip-path:url(#SVGID_6_);fill-rule:evenodd;clip-rule:evenodd;fill:url(#SVGID_177_);}
	.st174{clip-path:url(#SVGID_6_);fill-rule:evenodd;clip-rule:evenodd;fill:url(#SVGID_178_);}
	.st175{clip-path:url(#SVGID_6_);fill-rule:evenodd;clip-rule:evenodd;fill:url(#SVGID_179_);}
	.st176{clip-path:url(#SVGID_6_);fill-rule:evenodd;clip-rule:evenodd;fill:url(#SVGID_180_);}
	.st177{clip-path:url(#SVGID_6_);fill-rule:evenodd;clip-rule:evenodd;fill:url(#SVGID_181_);}
	.st178{clip-path:url(#SVGID_6_);fill-rule:evenodd;clip-rule:evenodd;fill:url(#SVGID_182_);}
	.st179{clip-path:url(#SVGID_6_);fill-rule:evenodd;clip-rule:evenodd;fill:url(#SVGID_183_);}
	.st180{clip-path:url(#SVGID_6_);fill-rule:evenodd;clip-rule:evenodd;fill:url(#SVGID_184_);}
	.st181{clip-path:url(#SVGID_6_);fill-rule:evenodd;clip-rule:evenodd;fill:url(#SVGID_185_);}
	.st182{clip-path:url(#SVGID_6_);fill-rule:evenodd;clip-rule:evenodd;fill:url(#SVGID_186_);}
	.st183{clip-path:url(#SVGID_6_);fill-rule:evenodd;clip-rule:evenodd;fill:url(#SVGID_187_);}
	.st184{clip-path:url(#SVGID_6_);fill-rule:evenodd;clip-rule:evenodd;fill:url(#SVGID_188_);}
	.st185{clip-path:url(#SVGID_6_);fill-rule:evenodd;clip-rule:evenodd;fill:url(#SVGID_189_);}
	.st186{clip-path:url(#SVGID_6_);fill-rule:evenodd;clip-rule:evenodd;fill:url(#SVGID_190_);}
	.st187{clip-path:url(#SVGID_6_);fill-rule:evenodd;clip-rule:evenodd;fill:url(#SVGID_191_);}
	.st188{clip-path:url(#SVGID_6_);fill-rule:evenodd;clip-rule:evenodd;fill:url(#SVGID_192_);}
	.st189{clip-path:url(#SVGID_6_);fill-rule:evenodd;clip-rule:evenodd;fill:url(#SVGID_193_);}
	.st190{clip-path:url(#SVGID_6_);fill-rule:evenodd;clip-rule:evenodd;fill:url(#SVGID_194_);}
	.st191{clip-path:url(#SVGID_6_);fill-rule:evenodd;clip-rule:evenodd;fill:url(#SVGID_195_);}
	.st192{clip-path:url(#SVGID_6_);fill-rule:evenodd;clip-rule:evenodd;fill:url(#SVGID_196_);}
	.st193{clip-path:url(#SVGID_6_);fill-rule:evenodd;clip-rule:evenodd;fill:url(#SVGID_197_);}
	.st194{clip-path:url(#SVGID_6_);fill-rule:evenodd;clip-rule:evenodd;fill:url(#SVGID_198_);}
	.st195{clip-path:url(#SVGID_6_);fill-rule:evenodd;clip-rule:evenodd;fill:url(#SVGID_199_);}
	.st196{clip-path:url(#SVGID_6_);fill-rule:evenodd;clip-rule:evenodd;fill:url(#SVGID_200_);}
	.st197{clip-path:url(#SVGID_6_);fill-rule:evenodd;clip-rule:evenodd;fill:url(#SVGID_201_);}
	.st198{clip-path:url(#SVGID_6_);fill-rule:evenodd;clip-rule:evenodd;fill:url(#SVGID_202_);}
	.st199{clip-path:url(#SVGID_6_);fill-rule:evenodd;clip-rule:evenodd;fill:url(#SVGID_203_);}
	.st200{clip-path:url(#SVGID_6_);fill-rule:evenodd;clip-rule:evenodd;fill:url(#SVGID_204_);}
	.st201{clip-path:url(#SVGID_6_);fill-rule:evenodd;clip-rule:evenodd;fill:url(#SVGID_205_);}
	.st202{clip-path:url(#SVGID_6_);fill-rule:evenodd;clip-rule:evenodd;fill:url(#SVGID_206_);}
	.st203{clip-path:url(#SVGID_6_);fill-rule:evenodd;clip-rule:evenodd;fill:url(#SVGID_207_);}
	.st204{clip-path:url(#SVGID_6_);fill-rule:evenodd;clip-rule:evenodd;fill:url(#SVGID_208_);}
	.st205{clip-path:url(#SVGID_6_);fill-rule:evenodd;clip-rule:evenodd;fill:url(#SVGID_209_);}
	.st206{clip-path:url(#SVGID_6_);fill-rule:evenodd;clip-rule:evenodd;fill:url(#SVGID_210_);}
	.st207{clip-path:url(#SVGID_6_);fill-rule:evenodd;clip-rule:evenodd;fill:url(#SVGID_211_);}
	.st208{clip-path:url(#SVGID_6_);fill-rule:evenodd;clip-rule:evenodd;fill:url(#SVGID_212_);}
	.st209{clip-path:url(#SVGID_6_);fill-rule:evenodd;clip-rule:evenodd;fill:url(#SVGID_213_);}
	.st210{clip-path:url(#SVGID_6_);fill-rule:evenodd;clip-rule:evenodd;fill:url(#SVGID_214_);}
	.st211{clip-path:url(#SVGID_6_);fill-rule:evenodd;clip-rule:evenodd;fill:url(#SVGID_215_);}
	.st212{clip-path:url(#SVGID_6_);fill-rule:evenodd;clip-rule:evenodd;fill:url(#SVGID_216_);}
	.st213{clip-path:url(#SVGID_6_);fill-rule:evenodd;clip-rule:evenodd;fill:url(#SVGID_217_);}
	.st214{clip-path:url(#SVGID_6_);fill-rule:evenodd;clip-rule:evenodd;fill:url(#SVGID_218_);}
	.st215{clip-path:url(#SVGID_6_);fill-rule:evenodd;clip-rule:evenodd;fill:url(#SVGID_219_);}
	.st216{clip-path:url(#SVGID_6_);fill-rule:evenodd;clip-rule:evenodd;fill:url(#SVGID_220_);}
	.st217{clip-path:url(#SVGID_6_);fill-rule:evenodd;clip-rule:evenodd;fill:url(#SVGID_221_);}
	.st218{clip-path:url(#SVGID_6_);fill-rule:evenodd;clip-rule:evenodd;fill:url(#SVGID_222_);}
	.st219{clip-path:url(#SVGID_6_);fill-rule:evenodd;clip-rule:evenodd;fill:url(#SVGID_223_);}
	.st220{clip-path:url(#SVGID_6_);fill-rule:evenodd;clip-rule:evenodd;fill:url(#SVGID_224_);}
	.st221{clip-path:url(#SVGID_6_);fill-rule:evenodd;clip-rule:evenodd;fill:url(#SVGID_225_);}
	.st222{clip-path:url(#SVGID_6_);fill-rule:evenodd;clip-rule:evenodd;fill:url(#SVGID_226_);}
	.st223{clip-path:url(#SVGID_6_);fill-rule:evenodd;clip-rule:evenodd;fill:url(#SVGID_227_);}
	.st224{clip-path:url(#SVGID_6_);fill-rule:evenodd;clip-rule:evenodd;fill:url(#SVGID_228_);}
	.st225{clip-path:url(#SVGID_6_);fill-rule:evenodd;clip-rule:evenodd;fill:url(#SVGID_229_);}
	.st226{clip-path:url(#SVGID_6_);fill-rule:evenodd;clip-rule:evenodd;fill:url(#SVGID_230_);}
	.st227{clip-path:url(#SVGID_6_);fill-rule:evenodd;clip-rule:evenodd;fill:url(#SVGID_231_);}
	.st228{clip-path:url(#SVGID_6_);fill-rule:evenodd;clip-rule:evenodd;fill:url(#SVGID_232_);}
	.st229{clip-path:url(#SVGID_6_);fill-rule:evenodd;clip-rule:evenodd;fill:url(#SVGID_233_);}
	.st230{clip-path:url(#SVGID_6_);fill-rule:evenodd;clip-rule:evenodd;fill:url(#SVGID_234_);}
	.st231{clip-path:url(#SVGID_6_);fill-rule:evenodd;clip-rule:evenodd;fill:url(#SVGID_235_);}
	.st232{clip-path:url(#SVGID_6_);fill-rule:evenodd;clip-rule:evenodd;fill:url(#SVGID_236_);}
	.st233{clip-path:url(#SVGID_6_);fill-rule:evenodd;clip-rule:evenodd;fill:url(#SVGID_237_);}
	.st234{clip-path:url(#SVGID_6_);fill-rule:evenodd;clip-rule:evenodd;fill:url(#SVGID_238_);}
	.st235{clip-path:url(#SVGID_6_);fill-rule:evenodd;clip-rule:evenodd;fill:url(#SVGID_239_);}
	.st236{clip-path:url(#SVGID_6_);fill-rule:evenodd;clip-rule:evenodd;fill:url(#SVGID_240_);}
	.st237{clip-path:url(#SVGID_6_);fill-rule:evenodd;clip-rule:evenodd;fill:url(#SVGID_241_);}
	.st238{clip-path:url(#SVGID_6_);fill-rule:evenodd;clip-rule:evenodd;fill:url(#SVGID_242_);}
	.st239{clip-path:url(#SVGID_6_);fill-rule:evenodd;clip-rule:evenodd;fill:url(#SVGID_243_);}
	.st240{clip-path:url(#SVGID_6_);fill-rule:evenodd;clip-rule:evenodd;fill:url(#SVGID_244_);}
	.st241{clip-path:url(#SVGID_6_);fill-rule:evenodd;clip-rule:evenodd;fill:url(#SVGID_245_);}
	.st242{clip-path:url(#SVGID_6_);fill-rule:evenodd;clip-rule:evenodd;fill:url(#SVGID_246_);}
	.st243{clip-path:url(#SVGID_6_);fill-rule:evenodd;clip-rule:evenodd;fill:url(#SVGID_247_);}
	.st244{clip-path:url(#SVGID_6_);fill-rule:evenodd;clip-rule:evenodd;fill:url(#SVGID_248_);}
	.st245{clip-path:url(#SVGID_6_);fill-rule:evenodd;clip-rule:evenodd;fill:url(#SVGID_249_);}
	.st246{clip-path:url(#SVGID_6_);fill-rule:evenodd;clip-rule:evenodd;fill:url(#SVGID_250_);}
	.st247{clip-path:url(#SVGID_6_);fill-rule:evenodd;clip-rule:evenodd;fill:url(#SVGID_251_);}
	.st248{clip-path:url(#SVGID_6_);fill-rule:evenodd;clip-rule:evenodd;fill:url(#SVGID_252_);}
	.st249{clip-path:url(#SVGID_6_);fill-rule:evenodd;clip-rule:evenodd;fill:url(#SVGID_253_);}
	.st250{clip-path:url(#SVGID_6_);fill-rule:evenodd;clip-rule:evenodd;fill:url(#SVGID_254_);}
	.st251{clip-path:url(#SVGID_6_);fill-rule:evenodd;clip-rule:evenodd;fill:url(#SVGID_255_);}
	.st252{clip-path:url(#SVGID_6_);fill-rule:evenodd;clip-rule:evenodd;fill:url(#SVGID_256_);}
	.st253{clip-path:url(#SVGID_6_);fill-rule:evenodd;clip-rule:evenodd;fill:url(#SVGID_257_);}
	.st254{clip-path:url(#SVGID_6_);fill-rule:evenodd;clip-rule:evenodd;fill:url(#SVGID_258_);}
	.st255{clip-path:url(#SVGID_6_);fill-rule:evenodd;clip-rule:evenodd;fill:url(#SVGID_259_);}
	.st256{clip-path:url(#SVGID_6_);fill-rule:evenodd;clip-rule:evenodd;fill:url(#SVGID_260_);}
	.st257{clip-path:url(#SVGID_6_);fill-rule:evenodd;clip-rule:evenodd;fill:url(#SVGID_261_);}
	.st258{clip-path:url(#SVGID_6_);fill-rule:evenodd;clip-rule:evenodd;fill:url(#SVGID_262_);}
	.st259{fill:url(#SVGID_263_);}
</style>
<g>
	<path class="st0" d="M18.48,18c1.86-1.08,2.49-3.46,1.43-5.3c-1.08-1.86-3.46-2.49-5.3-1.43l-9.09,5.24
		c-1.86,1.08-2.49,3.46-1.43,5.3c1.08,1.86,3.46,2.49,5.3,1.43L18.48,18z"/>
	<g>
		<defs>
			<path id="SVGID_1_" d="M18.48,11.27L9.39,6.02C7.55,4.95,5.14,5.6,4.08,7.44c-1.06,1.84-0.43,4.24,1.43,5.3l7.03,4.07
				c0.82,0.44,1.38,1.31,1.38,2.31c0,0.85-0.41,1.62-1.05,2.09l-0.06,0.06l5.89-3.42c0.47-0.32,0.88-0.75,1.19-1.28
				C20.97,14.73,20.33,12.33,18.48,11.27L18.48,11.27z M14.54,0.79L8.77,4.12l5.75,3.31C15.1,7.79,15.79,8,16.53,8
				c2.15,0,3.89-1.74,3.89-3.87c0-2.15-1.74-3.89-3.89-3.89C15.81,0.23,15.12,0.44,14.54,0.79L14.54,0.79z"/>
		</defs>
		<use xlink:href="#SVGID_1_"  style="overflow:visible;fill-rule:evenodd;clip-rule:evenodd;fill:#CCCCCC;"/>
		<clipPath id="SVGID_2_">
			<use xlink:href="#SVGID_1_"  style="overflow:visible;"/>
		</clipPath>
		<polyline class="st1" points="5.67,22.68 4.29,15.69 22.42,12.09 23.81,19.1 		"/>
		<polyline class="st1" points="4.29,15.7 4.27,15.66 22.41,12.08 22.42,12.11 		"/>
		<polyline class="st1" points="4.27,15.67 4.27,15.64 22.41,12.05 22.42,12.09 		"/>
		<polyline class="st1" points="4.27,15.66 4.27,15.61 22.41,12.03 22.41,12.06 		"/>
		<polyline class="st1" points="4.27,15.63 4.26,15.6 22.41,12 22.41,12.05 		"/>
		<polyline class="st1" points="4.27,15.61 4.26,15.57 22.39,11.99 22.41,12.02 		"/>
		<polyline class="st1" points="4.26,15.58 4.26,15.55 22.39,11.96 22.39,12 		"/>
		<polyline class="st1" points="4.26,15.57 4.26,15.53 22.39,11.95 22.39,11.97 		"/>
		<polyline class="st1" points="4.26,15.54 4.25,15.51 22.38,11.92 22.39,11.96 		"/>
		<polyline class="st1" points="4.25,15.53 4.25,15.48 22.38,11.9 22.38,11.93 		"/>
		<polyline class="st1" points="4.25,15.5 4.25,15.47 22.38,11.87 22.38,11.92 		"/>
		<polyline class="st1" points="4.25,15.47 4.23,15.44 22.36,11.86 22.38,11.89 		"/>
		<polyline class="st1" points="4.23,15.45 4.23,15.42 22.36,11.83 22.38,11.87 		"/>
		<polyline class="st1" points="4.23,15.42 4.23,15.39 22.36,11.81 22.36,11.84 		"/>
		<polyline class="st1" points="4.23,15.41 4.22,15.38 22.36,11.78 22.36,11.83 		"/>
		<polyline class="st1" points="4.23,15.38 4.22,15.35 22.35,11.77 22.36,11.8 		"/>
		<polyline class="st1" points="4.22,15.36 4.22,15.33 22.35,11.74 22.35,11.78 		"/>
		<polyline class="st1" points="4.22,15.33 4.22,15.3 22.35,11.72 22.35,11.75 		"/>
		<polyline class="st1" points="4.22,15.32 4.2,15.29 22.34,11.7 22.35,11.74 		"/>
		<polyline class="st1" points="4.2,15.29 4.2,15.26 22.34,11.68 22.34,11.71 		"/>
		<polyline class="st1" points="4.2,15.27 4.2,15.25 22.34,11.65 22.34,11.7 		"/>
		<polyline class="st1" points="4.2,15.25 4.19,15.22 22.32,11.64 22.34,11.67 		"/>
		<polyline class="st1" points="4.2,15.23 4.19,15.2 22.32,11.61 22.34,11.64 		"/>
		<polyline class="st1" points="4.19,15.2 4.19,15.17 22.32,11.59 22.32,11.62 		"/>
		<polyline class="st1" points="4.19,15.19 4.17,15.16 22.32,11.56 22.32,11.59 		"/>
		<polyline class="st1" points="4.19,15.16 4.17,15.13 22.31,11.55 22.32,11.58 		"/>
		<polyline class="st1" points="4.17,15.14 4.17,15.11 22.31,11.52 22.31,11.55 		"/>
		<polyline class="st1" points="4.17,15.11 4.17,15.08 22.31,11.5 22.31,11.53 		"/>
		<polyline class="st1" points="4.17,15.1 4.16,15.07 22.29,11.47 22.31,11.5 		"/>
		<polyline class="st1" points="4.16,15.07 4.16,15.04 22.29,11.46 22.29,11.49 		"/>
		<polyline class="st1" points="4.16,15.05 4.16,15.01 22.29,11.43 22.29,11.46 		"/>
		<polyline class="st1" points="4.16,15.02 4.14,14.99 22.28,11.42 22.29,11.44 		"/>
		<polyline class="st1" points="4.16,15.01 4.14,14.97 22.28,11.39 22.29,11.42 		"/>
		<polyline class="st1" points="4.14,14.98 4.14,14.95 22.28,11.37 22.28,11.4 		"/>
		<polyline class="st1" points="4.14,14.97 4.13,14.92 22.28,11.34 22.28,11.37 		"/>
		<polyline class="st1" points="4.14,14.94 4.13,14.91 22.26,11.33 22.28,11.36 		"/>
		<polyline class="st1" points="4.13,14.92 4.13,14.88 22.26,11.3 22.26,11.33 		"/>
		<polyline class="st1" points="4.13,14.89 4.13,14.86 22.26,11.28 22.26,11.31 		"/>
		<polyline class="st1" points="4.13,14.88 4.11,14.83 22.25,11.25 22.26,11.28 		"/>
		<polyline class="st1" points="4.11,14.85 4.11,14.82 22.25,11.24 22.25,11.27 		"/>
		<polyline class="st1" points="4.11,14.83 4.11,14.79 22.25,11.21 22.25,11.24 		"/>
		<polyline class="st1" points="4.11,14.8 4.1,14.77 22.23,11.18 22.25,11.22 		"/>
		<polyline class="st1" points="4.11,14.79 4.1,14.74 22.23,11.16 22.25,11.19 		"/>
		<polyline class="st1" points="4.1,14.76 4.1,14.73 22.23,11.14 22.23,11.18 		"/>
		<polyline class="st1" points="4.1,14.74 4.08,14.7 22.23,11.12 22.23,11.15 		"/>
		<polyline class="st1" points="4.1,14.71 4.08,14.69 22.22,11.09 22.23,11.14 		"/>
		<polyline class="st1" points="4.08,14.7 4.08,14.66 22.22,11.08 22.22,11.11 		"/>
		<polyline class="st1" points="4.08,14.67 4.08,14.64 22.22,11.05 22.22,11.09 		"/>
		<polyline class="st1" points="4.08,14.66 4.07,14.61 22.2,11.03 22.22,11.06 		"/>
		<polyline class="st1" points="4.07,14.63 4.07,14.6 22.2,11 22.22,11.05 		"/>
		<polyline class="st1" points="4.07,14.61 4.07,14.57 22.2,10.99 22.2,11.02 		"/>
		<polyline class="st1" points="4.07,14.58 4.05,14.55 22.19,10.96 22.2,11 		"/>
		<polyline class="st1" points="4.07,14.55 4.05,14.52 22.19,10.94 22.2,10.97 		"/>
		<polyline class="st1" points="4.05,14.54 4.05,14.51 22.19,10.91 22.19,10.96 		"/>
		<polyline class="st1" points="4.05,14.51 4.04,14.48 22.19,10.9 22.19,10.93 		"/>
		<polyline class="st1" points="4.05,14.49 4.04,14.46 22.17,10.87 22.19,10.91 		"/>
		<polyline class="st1" points="4.04,14.46 4.04,14.44 22.17,10.86 22.17,10.88 		"/>
		<polyline class="st1" points="4.04,14.45 4.04,14.42 22.17,10.83 22.17,10.87 		"/>
		<polyline class="st1" points="4.04,14.42 4.02,14.39 22.16,10.81 22.17,10.84 		"/>
		<polyline class="st1" points="4.02,14.41 4.02,14.38 22.16,10.78 22.17,10.83 		"/>
		<polyline class="st1" points="4.02,14.38 4.02,14.35 22.16,10.77 22.16,10.8 		"/>
		<polyline class="st1" points="4.02,14.36 4.01,14.33 22.14,10.74 22.16,10.78 		"/>
		<polyline class="st1" points="4.02,14.33 4.01,14.3 22.14,10.72 22.16,10.75 		"/>
		<polyline class="st1" points="4.01,14.32 4.01,14.29 22.14,10.69 22.14,10.72 		"/>
		<polyline class="st1" points="4.01,14.29 4.01,14.26 22.14,10.68 22.14,10.71 		"/>
		<polyline class="st1" points="4.01,14.27 3.99,14.24 22.13,10.65 22.14,10.68 		"/>
		<polyline class="st1" points="3.99,14.24 3.99,14.21 22.13,10.63 22.13,10.66 		"/>
		<polyline class="st1" points="3.99,14.23 3.99,14.2 22.13,10.6 22.13,10.63 		"/>
		<polyline class="st1" points="3.99,14.2 3.98,14.17 22.11,10.59 22.13,10.62 		"/>
		<polyline class="st1" points="3.98,14.18 3.98,14.16 22.11,10.56 22.13,10.59 		"/>
		<polyline class="st1" points="3.98,14.16 3.98,14.13 22.11,10.55 22.11,10.58 		"/>
		<polyline class="st1" points="3.98,14.14 3.97,14.1 22.1,10.52 22.11,10.55 		"/>
		<polyline class="st1" points="3.98,14.11 3.97,14.08 22.1,10.5 22.11,10.53 		"/>
		<polyline class="st1" points="3.97,14.1 3.97,14.05 22.1,10.47 22.1,10.5 		"/>
		<polyline class="st1" points="3.97,14.07 3.97,14.04 22.1,10.46 22.1,10.49 		"/>
		<polyline class="st1" points="3.97,14.05 3.95,14.01 22.08,10.43 22.1,10.46 		"/>
		<polyline class="st1" points="3.95,14.02 3.95,13.99 22.08,10.41 22.08,10.44 		"/>
		<polyline class="st1" points="3.95,14.01 3.95,13.96 22.08,10.38 22.08,10.41 		"/>
		<polyline class="st1" points="3.95,13.98 3.94,13.95 22.07,10.37 22.08,10.4 		"/>
		<polyline class="st1" points="3.94,13.96 3.94,13.92 22.07,10.34 22.08,10.37 		"/>
		<polyline class="st1" points="3.94,13.93 3.94,13.9 22.07,10.33 22.07,10.35 		"/>
		<polyline class="st1" points="3.94,13.92 3.92,13.88 22.06,10.3 22.07,10.33 		"/>
		<polyline class="st1" points="3.94,13.89 3.92,13.86 22.06,10.27 22.07,10.31 		"/>
		<polyline class="st1" points="3.92,13.88 3.92,13.83 22.06,10.25 22.06,10.28 		"/>
		<polyline class="st1" points="3.92,13.85 3.92,13.82 22.06,10.22 22.06,10.27 		"/>
		<polyline class="st1" points="3.92,13.83 3.91,13.79 22.04,10.21 22.06,10.24 		"/>
		<polyline class="st1" points="3.91,13.8 3.91,13.77 22.04,10.18 22.04,10.22 		"/>
		<polyline class="st1" points="3.91,13.79 3.91,13.74 22.04,10.16 22.04,10.19 		"/>
		<polyline class="st1" points="3.91,13.76 3.89,13.73 22.03,10.13 22.04,10.18 		"/>
		<polyline class="st1" points="3.89,13.74 3.89,13.7 22.03,10.12 22.04,10.15 		"/>
		<polyline class="st1" points="3.89,13.71 3.89,13.68 22.03,10.09 22.03,10.13 		"/>
		<polyline class="st1" points="3.89,13.7 3.88,13.65 22.03,10.07 22.03,10.1 		"/>
		<polyline class="st1" points="3.89,13.67 3.88,13.64 22.01,10.05 22.03,10.09 		"/>
		<polyline class="st1" points="3.88,13.65 3.88,13.61 22.01,10.03 22.01,10.06 		"/>
		<polyline class="st1" points="3.88,13.62 3.88,13.6 22.01,10 22.01,10.05 		"/>
		<polyline class="st1" points="3.88,13.6 3.86,13.57 22,9.99 22.01,10.02 		"/>
		<polyline class="st1" points="3.86,13.58 3.86,13.55 22,9.96 22,10 		"/>
		<polyline class="st1" points="3.86,13.55 3.86,13.52 22,9.94 22,9.97 		"/>
		<polyline class="st1" points="3.86,13.54 3.85,13.51 21.98,9.91 22,9.96 		"/>
		<polyline class="st1" points="3.85,13.51 3.85,13.48 21.98,9.9 22,9.93 		"/>
		<polyline class="st1" points="3.85,13.49 3.85,13.46 21.98,9.87 21.98,9.91 		"/>
		<polyline class="st1" points="3.85,13.46 3.83,13.43 21.98,9.85 21.98,9.88 		"/>
		<polyline class="st1" points="3.85,13.45 3.83,13.42 21.97,9.82 21.98,9.87 		"/>
		<polyline class="st1" points="3.83,13.42 3.83,13.39 21.97,9.81 21.97,9.84 		"/>
		<polyline class="st1" points="3.83,13.4 3.83,13.37 21.97,9.78 21.97,9.82 		"/>
		<polyline class="st1" points="3.83,13.37 3.82,13.34 21.95,9.77 21.97,9.79 		"/>
		<polyline class="st1" points="3.82,13.36 3.82,13.33 21.95,9.74 21.95,9.77 		"/>
		<polyline class="st1" points="3.82,13.33 3.82,13.3 21.95,9.72 21.95,9.75 		"/>
		<polyline class="st1" points="3.82,13.32 3.8,13.29 21.94,9.69 21.95,9.72 		"/>
		<polyline class="st1" points="3.82,13.29 3.8,13.26 21.94,9.68 21.95,9.71 		"/>
		<polyline class="st1" points="3.8,13.27 3.8,13.24 21.94,9.65 21.94,9.68 		"/>
		<polyline class="st1" points="3.8,13.24 3.79,13.21 21.94,9.63 21.94,9.66 		"/>
		<polyline class="st1" points="3.8,13.23 3.79,13.2 21.92,9.6 21.94,9.63 		"/>
		<polyline class="st1" points="3.79,13.2 3.79,13.17 21.92,9.59 21.92,9.62 		"/>
		<polyline class="st1" points="3.79,13.18 3.79,13.14 21.92,9.56 21.92,9.59 		"/>
		<polyline class="st1" points="3.79,13.15 3.77,13.12 21.91,9.54 21.92,9.57 		"/>
		<polyline class="st1" points="3.77,13.14 3.77,13.09 21.91,9.51 21.91,9.54 		"/>
		<polyline class="st1" points="3.77,13.11 3.77,13.08 21.91,9.5 21.91,9.53 		"/>
		<polyline class="st1" points="3.77,13.09 3.76,13.05 21.89,9.47 21.91,9.5 		"/>
		<polyline class="st1" points="3.77,13.07 3.76,13.04 21.89,9.46 21.91,9.49 		"/>
		<polyline class="st1" points="3.76,13.05 3.76,13.01 21.89,9.43 21.89,9.46 		"/>
		<polyline class="st1" points="3.76,13.02 3.74,12.99 21.89,9.41 21.89,9.44 		"/>
		<polyline class="st1" points="3.76,13.01 3.74,12.96 21.88,9.38 21.89,9.41 		"/>
		<polyline class="st1" points="3.74,12.98 3.74,12.95 21.88,9.37 21.88,9.4 		"/>
		<polyline class="st1" points="3.74,12.96 3.74,12.92 21.88,9.34 21.88,9.37 		"/>
		<polyline class="st1" points="3.74,12.93 3.73,12.9 21.86,9.31 21.88,9.35 		"/>
		<polyline class="st1" points="3.73,12.92 3.73,12.87 21.86,9.29 21.86,9.32 		"/>
		<polyline class="st1" points="3.73,12.89 3.73,12.86 21.86,9.26 21.86,9.31 		"/>
		<polyline class="st1" points="3.73,12.87 3.72,12.83 21.85,9.25 21.86,9.28 		"/>
		<polyline class="st1" points="3.73,12.84 3.72,12.81 21.85,9.22 21.86,9.26 		"/>
		<polyline class="st1" points="3.72,12.83 3.72,12.79 21.85,9.21 21.85,9.23 		"/>
		<polyline class="st1" points="3.72,12.8 3.7,12.77 21.85,9.18 21.85,9.22 		"/>
		<polyline class="st1" points="3.72,12.79 3.7,12.74 21.83,9.16 21.85,9.19 		"/>
		<polyline class="st1" points="3.7,12.76 3.7,12.73 21.83,9.13 21.83,9.18 		"/>
		<polyline class="st1" points="3.7,12.74 3.7,12.7 21.83,9.12 21.83,9.15 		"/>
		<polyline class="st1" points="3.7,12.71 3.69,12.68 21.82,9.09 21.83,9.13 		"/>
		<polyline class="st1" points="3.69,12.68 3.69,12.65 21.82,9.07 21.83,9.1 		"/>
		<polyline class="st1" points="3.69,12.67 3.69,12.64 21.82,9.04 21.82,9.09 		"/>
		<polyline class="st1" points="3.69,12.64 3.67,12.61 21.8,9.03 21.82,9.06 		"/>
		<polyline class="st1" points="3.69,12.62 3.67,12.59 21.8,9 21.82,9.04 		"/>
		<polyline class="st1" points="3.67,12.59 3.67,12.56 21.8,8.98 21.8,9.01 		"/>
		<polyline class="st1" points="3.67,12.58 3.66,12.55 21.8,8.96 21.8,9 		"/>
		<polyline class="st1" points="3.67,12.55 3.66,12.52 21.79,8.94 21.8,8.97 		"/>
		<polyline class="st1" points="3.66,12.53 3.66,12.51 21.79,8.91 21.79,8.96 		"/>
		<polyline class="st1" points="3.66,12.51 3.66,12.48 21.79,8.9 21.79,8.93 		"/>
		<polyline class="st1" points="3.66,12.49 3.64,12.46 21.78,8.87 21.79,8.91 		"/>
		<polyline class="st1" points="3.64,12.46 3.64,12.43 21.78,8.85 21.79,8.88 		"/>
		<polyline class="st1" points="3.64,12.45 3.64,12.42 21.78,8.82 21.78,8.85 		"/>
		<polyline class="st1" points="3.64,12.42 3.63,12.39 21.76,8.81 21.78,8.84 		"/>
		<polyline class="st1" points="3.64,12.4 3.63,12.37 21.76,8.78 21.78,8.81 		"/>
		<polyline class="st1" points="3.63,12.37 3.63,12.34 21.76,8.76 21.76,8.79 		"/>
		<polyline class="st1" points="3.63,12.36 3.63,12.33 21.76,8.73 21.76,8.76 		"/>
		<polyline class="st1" points="3.63,12.33 3.61,12.3 21.75,8.72 21.76,8.75 		"/>
		<polyline class="st1" points="3.61,12.31 3.61,12.28 21.75,8.69 21.75,8.72 		"/>
		<polyline class="st1" points="3.61,12.28 3.61,12.25 21.75,8.68 21.75,8.7 		"/>
		<polyline class="st1" points="3.61,12.27 3.6,12.24 21.73,8.65 21.75,8.68 		"/>
		<polyline class="st1" points="3.6,12.24 3.6,12.21 21.73,8.63 21.75,8.66 		"/>
		<polyline class="st1" points="3.6,12.23 3.6,12.18 21.73,8.6 21.73,8.63 		"/>
		<polyline class="st1" points="3.6,12.2 3.58,12.17 21.72,8.59 21.73,8.62 		"/>
		<polyline class="st1" points="3.6,12.18 3.58,12.14 21.72,8.56 21.73,8.59 		"/>
		<polyline class="st1" points="3.58,12.15 3.58,12.12 21.72,8.54 21.72,8.57 		"/>
		<polyline class="st1" points="3.58,12.14 3.58,12.09 21.72,8.51 21.72,8.54 		"/>
		<polyline class="st1" points="3.58,12.11 3.57,12.08 21.7,8.5 21.72,8.53 		"/>
		<polyline class="st1" points="3.57,12.09 3.57,12.05 21.7,8.47 21.7,8.5 		"/>
		<polyline class="st1" points="3.57,12.06 3.57,12.03 21.7,8.45 21.7,8.48 		"/>
		<polyline class="st1" points="3.57,12.05 3.55,12 21.69,8.42 21.7,8.45 		"/>
		<polyline class="st1" points="3.55,12.02 3.55,11.99 21.69,8.41 21.7,8.44 		"/>
		<polyline class="st1" points="3.55,12 3.55,11.96 21.69,8.38 21.69,8.41 		"/>
		<polyline class="st1" points="3.55,11.97 3.54,11.95 21.67,8.35 21.69,8.4 		"/>
		<polyline class="st1" points="3.55,11.96 3.54,11.92 21.67,8.34 21.69,8.37 		"/>
		<polyline class="st1" points="3.54,11.93 3.54,11.9 21.67,8.31 21.67,8.35 		"/>
		<polyline class="st1" points="3.54,11.92 3.54,11.87 21.67,8.29 21.67,8.32 		"/>
		<polyline class="st1" points="3.54,11.89 3.52,11.86 21.66,8.26 21.67,8.31 		"/>
		<polyline class="st1" points="3.52,11.87 3.52,11.83 21.66,8.25 21.66,8.28 		"/>
		<polyline class="st1" points="3.52,11.84 3.52,11.81 21.66,8.22 21.66,8.26 		"/>
		<polyline class="st1" points="3.52,11.83 3.51,11.78 21.64,8.2 21.66,8.23 		"/>
		<polyline class="st1" points="3.51,11.8 3.51,11.77 21.64,8.17 21.66,8.22 		"/>
		<polyline class="st1" points="3.51,11.78 3.51,11.74 21.64,8.16 21.64,8.19 		"/>
		<polyline class="st1" points="3.51,11.75 3.49,11.72 21.64,8.13 21.64,8.17 		"/>
		<polyline class="st1" points="3.51,11.72 3.49,11.7 21.63,8.12 21.64,8.14 		"/>
		<polyline class="st1" points="3.49,11.71 3.49,11.68 21.63,8.09 21.63,8.13 		"/>
		<polyline class="st1" points="3.49,11.68 3.49,11.65 21.63,8.07 21.63,8.1 		"/>
		<polyline class="st1" points="3.49,11.67 3.48,11.64 21.61,8.04 21.63,8.09 		"/>
		<polyline class="st1" points="3.48,11.64 3.48,11.61 21.61,8.03 21.61,8.06 		"/>
		<polyline class="st1" points="3.48,11.62 3.48,11.59 21.61,8 21.61,8.04 		"/>
		<polyline class="st1" points="3.48,11.59 3.46,11.56 21.6,7.98 21.61,8.01 		"/>
		<polyline class="st1" points="3.46,11.58 3.46,11.55 21.6,7.95 21.61,8 		"/>
		<polyline class="st1" points="3.46,11.55 3.46,11.52 21.6,7.94 21.6,7.97 		"/>
		<polyline class="st1" points="3.46,11.53 3.45,11.5 21.6,7.91 21.6,7.95 		"/>
		<polyline class="st1" points="3.46,11.5 3.45,11.47 21.58,7.89 21.6,7.92 		"/>
		<polyline class="st1" points="3.45,11.49 3.45,11.46 21.58,7.86 21.58,7.89 		"/>
		<polyline class="st1" points="3.45,11.46 3.45,11.43 21.58,7.85 21.58,7.88 		"/>
		<polyline class="st1" points="3.45,11.44 3.44,11.42 21.57,7.82 21.58,7.85 		"/>
		<polyline class="st1" points="3.44,11.42 3.44,11.39 21.57,7.81 21.57,7.84 		"/>
		<polyline class="st1" points="3.44,11.4 3.44,11.37 21.57,7.78 21.57,7.81 		"/>
		<polyline class="st1" points="3.44,11.37 3.42,11.34 21.55,7.76 21.57,7.79 		"/>
		<polyline class="st1" points="3.44,11.36 3.42,11.33 21.55,7.73 21.57,7.76 		"/>
		<polyline class="st1" points="3.42,11.33 3.42,11.3 21.55,7.72 21.55,7.75 		"/>
		<polyline class="st1" points="3.42,11.31 3.41,11.27 21.55,7.69 21.55,7.72 		"/>
		<polyline class="st1" points="3.42,11.28 3.41,11.25 21.54,7.67 21.55,7.7 		"/>
		<polyline class="st1" points="3.41,11.27 3.41,11.22 21.54,7.64 21.54,7.67 		"/>
		<polyline class="st1" points="3.41,11.24 3.41,11.21 21.54,7.63 21.54,7.66 		"/>
		<polyline class="st1" points="3.41,11.22 3.39,11.18 21.52,7.6 21.54,7.63 		"/>
		<polyline class="st1" points="3.39,11.19 3.39,11.16 21.52,7.59 21.52,7.61 		"/>
		<polyline class="st1" points="3.39,11.18 3.39,11.14 21.52,7.56 21.52,7.59 		"/>
		<polyline class="st1" points="3.39,11.15 3.38,11.12 21.51,7.54 21.52,7.57 		"/>
		<polyline class="st1" points="3.39,11.14 3.38,11.09 21.51,7.51 21.52,7.54 		"/>
		<polyline class="st1" points="3.38,11.11 3.38,11.08 21.51,7.5 21.51,7.53 		"/>
		<polyline class="st1" points="3.38,11.09 3.36,11.05 21.51,7.47 21.51,7.5 		"/>
		<polyline class="st1" points="3.38,11.06 3.36,11.03 21.5,7.44 21.51,7.48 		"/>
		<polyline class="st1" points="3.36,11.05 3.36,11 21.5,7.42 21.5,7.45 		"/>
		<polyline class="st1" points="3.36,11.02 3.36,10.99 21.5,7.39 21.5,7.44 		"/>
		<polyline class="st1" points="3.36,11 3.35,10.96 21.48,7.38 21.5,7.41 		"/>
		<polyline class="st1" points="3.35,10.97 3.35,10.94 21.48,7.35 21.48,7.39 		"/>
		<polyline class="st1" points="3.35,10.96 3.35,10.91 21.48,7.33 21.48,7.36 		"/>
		<polyline class="st1" points="3.35,10.93 3.33,10.9 21.47,7.31 21.48,7.35 		"/>
		<polyline class="st1" points="3.35,10.91 3.33,10.87 21.47,7.29 21.48,7.32 		"/>
		<polyline class="st1" points="3.33,10.88 3.33,10.86 21.47,7.26 21.47,7.31 		"/>
		<polyline class="st1" points="3.33,10.87 3.32,10.83 21.47,7.25 21.47,7.28 		"/>
		<polyline class="st1" points="3.33,10.84 3.32,10.81 21.45,7.22 21.47,7.26 		"/>
		<polyline class="st1" points="3.32,10.83 3.32,10.78 21.45,7.2 21.45,7.23 		"/>
		<polyline class="st1" points="3.32,10.8 3.32,10.77 21.45,7.17 21.45,7.22 		"/>
		<polyline class="st1" points="3.32,10.77 3.3,10.74 21.44,7.16 21.45,7.19 		"/>
		<polyline class="st1" points="3.3,10.75 3.3,10.72 21.44,7.13 21.45,7.17 		"/>
		<polyline class="st1" points="3.3,10.72 3.3,10.69 21.44,7.11 21.44,7.14 		"/>
		<polyline class="st1" points="3.3,10.71 3.29,10.68 21.42,7.08 21.44,7.13 		"/>
		<polyline class="st1" points="3.3,10.68 3.29,10.65 21.42,7.07 21.44,7.1 		"/>
		<polyline class="st1" points="3.29,10.66 3.29,10.63 21.42,7.04 21.42,7.08 		"/>
		<polyline class="st1" points="3.29,10.63 3.27,10.6 21.42,7.03 21.42,7.05 		"/>
		<polyline class="st1" points="3.29,10.62 3.27,10.59 21.41,7 21.42,7.04 		"/>
		<polyline class="st1" points="3.27,10.59 3.27,10.56 21.41,6.98 21.41,7.01 		"/>
		<polyline class="st1" points="3.27,10.58 3.27,10.55 21.41,6.95 21.41,7 		"/>
		<polyline class="st1" points="3.27,10.55 3.26,10.52 21.39,6.94 21.41,6.97 		"/>
		<polyline class="st1" points="3.26,10.53 3.26,10.5 21.39,6.91 21.41,6.94 		"/>
		<polyline class="st1" points="3.26,10.5 3.26,10.47 21.39,6.89 21.39,6.92 		"/>
		<polyline class="st1" points="3.26,10.49 3.24,10.46 21.38,6.86 21.39,6.89 		"/>
		<polyline class="st1" points="3.26,10.46 3.24,10.43 21.38,6.85 21.39,6.88 		"/>
		<polyline class="st1" points="3.24,10.44 3.24,10.41 21.38,6.82 21.38,6.85 		"/>
		<polyline class="st1" points="3.24,10.41 3.24,10.38 21.38,6.8 21.38,6.83 		"/>
		<polyline class="st1" points="3.24,10.4 3.23,10.37 21.36,6.77 21.38,6.8 		"/>
		<polyline class="st1" points="3.23,10.37 3.23,10.34 21.36,6.76 21.36,6.79 		"/>
		<polyline class="st1" points="3.23,10.35 3.23,10.31 21.36,6.73 21.36,6.76 		"/>
		<polyline class="st1" points="3.23,10.33 3.21,10.3 21.35,6.72 21.36,6.75 		"/>
		<polyline class="st1" points="3.21,10.31 3.21,10.27 21.35,6.69 21.36,6.72 		"/>
		<polyline class="st1" points="3.21,10.28 3.21,10.25 21.35,6.67 21.35,6.7 		"/>
		<polyline class="st1" points="3.21,10.27 3.2,10.22 21.33,6.64 21.35,6.67 		"/>
		<polyline class="st1" points="3.21,10.24 3.2,10.21 21.33,6.63 21.35,6.66 		"/>
		<polyline class="st1" points="3.2,10.22 3.2,10.18 21.33,6.6 21.33,6.63 		"/>
		<polyline class="st1" points="3.2,10.19 3.2,10.16 21.33,6.58 21.33,6.61 		"/>
		<polyline class="st1" points="3.2,10.18 3.18,10.13 21.32,6.55 21.33,6.58 		"/>
		<polyline class="st1" points="3.18,10.15 3.18,10.12 21.32,6.54 21.32,6.57 		"/>
		<polyline class="st1" points="3.18,10.13 3.18,10.09 21.32,6.51 21.32,6.54 		"/>
		<polyline class="st1" points="3.18,10.1 3.17,10.07 21.3,6.48 21.32,6.52 		"/>
		<polyline class="st1" points="3.17,10.09 3.17,10.05 21.3,6.47 21.32,6.49 		"/>
		<polyline class="st1" points="3.17,10.06 3.17,10.03 21.3,6.44 21.3,6.48 		"/>
		<polyline class="st1" points="3.17,10.05 1.79,3 19.92,-0.58 21.3,6.45 		"/>
	</g>
</g>
</svg>
