<?xml version="1.0" encoding="utf-8"?>
<!-- Generator: Adobe Illustrator 23.0.1, SVG Export Plug-In . SVG Version: 6.00 Build 0)  -->
<svg version="1.1" id="Layer_1" xmlns="http://www.w3.org/2000/svg" xmlns:xlink="http://www.w3.org/1999/xlink" x="0px" y="0px"
	 viewBox="0 0 23 23" style="enable-background:new 0 0 23 23;" xml:space="preserve">
<style type="text/css">
	.st0{fill:#868686;}
</style>
<g>
	<path class="st0" d="M0,8.55c0.49-0.1,0.99-0.2,1.48-0.3C2.61,8,3.72,7.72,4.77,7.2c1.18-0.59,1.97-1.52,2.47-2.72
		c0.52-1.26,0.8-2.59,1.06-3.92c0.02-0.11,0.04-0.22,0.07-0.33c0-0.01,0.02-0.02,0.05-0.06C8.49,0.59,8.57,0.99,8.66,1.4
		c0.22,1.06,0.48,2.1,0.9,3.1c0.57,1.37,1.53,2.33,2.89,2.9c1.28,0.53,2.62,0.81,3.97,1.07c0.12,0.02,0.25,0.05,0.37,0.12
		c-0.54,0.11-1.08,0.22-1.62,0.34c-1.08,0.24-2.15,0.52-3.15,1.02c-1.16,0.58-1.95,1.5-2.45,2.68c-0.54,1.29-0.82,2.66-1.08,4.03
		c-0.02,0.1-0.04,0.2-0.1,0.31c-0.06-0.28-0.11-0.57-0.17-0.85c-0.24-1.17-0.5-2.33-0.96-3.44c-0.57-1.41-1.56-2.4-2.97-2.97
		C3,9.2,1.66,8.92,0.31,8.66C0.21,8.64,0.1,8.62,0,8.6C0,8.58,0,8.57,0,8.55z"/>
	<path class="st0" d="M17.64,22.84c-0.08-0.41-0.14-0.77-0.24-1.13c-0.15-0.57-0.3-1.14-0.51-1.68c-0.41-1.06-1.23-1.68-2.29-1.99
		c-0.66-0.2-1.34-0.34-2.02-0.5c-0.09-0.02-0.17-0.04-0.26-0.09c0.36-0.07,0.72-0.13,1.08-0.23c0.57-0.15,1.14-0.3,1.68-0.51
		c1.06-0.41,1.69-1.24,2-2.31c0.2-0.67,0.34-1.36,0.5-2.04c0.02-0.07,0.04-0.14,0.05-0.21c0.19,0.76,0.36,1.52,0.59,2.27
		c0.25,0.85,0.69,1.6,1.49,2.02c0.5,0.27,1.05,0.46,1.59,0.63c0.47,0.15,0.97,0.22,1.46,0.33c0.07,0.02,0.14,0.03,0.24,0.06
		c-0.65,0.15-1.26,0.29-1.88,0.44c-1.65,0.38-2.66,1.4-3.04,3.05C17.94,21.56,17.79,22.17,17.64,22.84z"/>
</g>
</svg>
