<?xml version="1.0" encoding="utf-8"?>
<!-- Generator: Adobe Illustrator 23.0.1, SVG Export Plug-In . SVG Version: 6.00 Build 0)  -->
<svg version="1.1" id="Layer_1" xmlns="http://www.w3.org/2000/svg" xmlns:xlink="http://www.w3.org/1999/xlink" x="0px" y="0px"
	 viewBox="0 0 23 23" style="enable-background:new 0 0 23 23;" xml:space="preserve">
<style type="text/css">
	.st0{fill:#868686;}
</style>
<path class="st0" d="M21.04,0.08H1.96c-1.04,0-1.89,0.84-1.89,1.87v19.08c0,1.05,0.84,1.89,1.89,1.89h19.07
	c1.04,0,1.89-0.83,1.89-1.89V1.95C22.92,0.92,22.08,0.08,21.04,0.08z M17.88,6.9c-0.38,0.55-0.66,0.88-1.04,1.26
	c-0.58-0.55-1.06-1-1.62-1.42c0.35-0.53,0.73-0.95,1.09-1.33C16.88,5.86,17.35,6.32,17.88,6.9z M14.37,2.63
	c0.58,0.45,1.04,0.91,1.58,1.49c-0.38,0.56-0.66,0.91-1.04,1.26c-0.58-0.53-1.06-0.98-1.62-1.41C13.63,3.46,14.03,3.01,14.37,2.63z
	 M13.63,5.59c0.55,0.46,1.02,0.88,1.58,1.46c-0.4,0.56-0.66,0.96-1.07,1.29c-0.55-0.56-1.06-0.98-1.62-1.44
	C12.89,6.41,13.27,5.94,13.63,5.59z M19.12,13.68c-0.42,0.87-1.11,1.56-1.97,1.56c-0.65,0-1.38-0.38-1.87-1.09h-0.02
	c-0.49,0.69-1.21,1.32-2.36,1.32h-0.38c-0.04,0.88-0.22,1.56-0.46,2.11c-0.68,1.58-2.73,2.71-4.67,2.71c-2.69,0-4.02-1.84-4.02-4.27
	c0-1.46,0.41-2.87,1.04-3.84l0.54,0.22c-0.4,0.89-0.67,1.76-0.67,2.58c0,2.29,1.56,3.36,3.38,3.36c1.67,0,3.76-1.24,4.14-2.69
	c-0.15-1.62-0.66-2.35-1.44-3.82c0.25-0.46,0.55-0.95,0.93-1.44h0.07c0.38,0.69,0.63,1.34,0.89,2.09c0.18,0.43,0.27,1.22,1.13,1.22
	c0.25,0,0.61-0.1,0.94-0.33c0.35-0.2,0.62-0.53,0.76-1.04l0.35-1.38l0.83-0.46l0.07,0.07c-0.11,0.53-0.13,1-0.13,1.38
	c0,1.13,0.82,1.56,1.49,1.56c0.4,0,0.73-0.18,0.73-0.6c0-0.56-0.2-1.49-0.45-2.3c0.4-0.46,0.78-0.91,1.22-1.29l0.07,0.03
	c0.2,0.98,0.31,1.94,0.31,2.6C19.55,12.5,19.3,13.19,19.12,13.68z"/>
</svg>
